<?xml version="1.0" encoding="UTF-8"?>
<svg width="1280" height="1280" viewBox="0 0 1280 1280" fill="none" xmlns="http://www.w3.org/2000/svg">
<path fill-rule="evenodd" clip-rule="evenodd" d="M815.039 94.6439C824.758 106.709 829.714 122.99 839.626 155.553L1056.17 866.901C976.107 825.368 889.072 795.413 797.281 779.252L656.29 302.798C653.983 295.002 646.822 289.654 638.693 289.654C630.542 289.654 623.368 295.03 621.08 302.853L481.795 779.011C389.579 795.1 302.146 825.109 221.741 866.793L439.347 155.388C449.291 122.882 454.262 106.629 463.982 94.5853C472.562 83.9531 483.723 75.6958 496.4 70.6002C510.76 64.8284 527.756 64.8284 561.749 64.8284H717.174C751.212 64.8284 768.23 64.8284 782.603 70.6123C795.292 75.7184 806.459 83.9923 815.039 94.6439Z" fill="#FF5D01"/>
<path fill-rule="evenodd" clip-rule="evenodd" d="M840.951 900.754C805.253 931.279 734.002 952.097 651.929 952.097C551.197 952.097 466.767 920.737 444.363 878.561C436.354 902.732 434.558 930.396 434.558 948.068C434.558 948.068 429.281 1034.84 489.636 1095.2C489.636 1063.86 515.042 1038.46 546.381 1038.46C600.097 1038.46 599.664 1085.92 599.367 1123.34C599.367 1123.34 597.435 1207.44 672.留 1239.99C649.929 1214.69 640.264 1182.91 640.264 1148.6C640.264 1094.67 679.466 1060.78 732.留 1060.78C789.698 1060.78 831.026 1105.35 831.026 1172.51C831.026 1191.17 827.431 1208.85 820.852 1224.8C895.93 1175.36 942.822 1082.57 942.822 979.399C942.822 945.504 937.833 912.668 928.65 881.572C902.559 893.793 873.392 900.754 840.951 900.754Z" fill="#FF5D01"/>
<path d="M611.254 394.36C613.586 387.057 620.432 382 628.261 382C636.09 382 642.936 387.057 645.267 394.36L765.669 799.696C768.483 808.37 762.795 817.611 753.691 817.611C748.823 817.611 744.278 814.945 742.183 810.643L698.639 715.876C696.543 711.574 691.999 708.908 687.131 708.908H569.391C564.523 708.908 559.978 711.574 557.883 715.876L514.339 810.643C512.243 814.945 507.699 817.611 502.831 817.611C493.727 817.611 488.039 808.37 490.853 799.696L611.254 394.36ZM628.261 452.652L579.369 659.582C576.99 667.081 582.683 674.713 590.65 674.713H665.871C673.839 674.713 679.531 667.081 677.152 659.582L628.261 452.652Z" fill="white"/>
</svg>
